<?xml version="1.0" encoding="utf-8"?>
<svg xmlns="http://www.w3.org/2000/svg" viewBox="0 0 500 500">
  <g transform="matrix(0.529089, 0, 0, 0.529089, -51.560284, 120.104935)" style="">
    <g>
      <g id="MAIN" transform="matrix(1, 0, 0, 1, 46.281322, -518.720581)">
        <g>
          <g>
            <path class="cls-2" d="M425.32,883.01c-1.95-5.46-5.65-15.33-11.44-27.74h-66.15c-21.71-.04-35.66-8.7-42.46-26.42h-11.32v105.86h145.64c-1.01-4.78-2.39-10.9-4.17-17.86-2.16-8.42-5.1-19.81-10.1-33.84Z" style="fill: rgb(113, 2, 34);"/>
            <path class="cls-2" d="M625.43,826.56c1.45-.6,2.95-1.23,4.46-1.89.79-.34,1.59-.69,2.38-1.04,6.68-2.98,13.3-6.35,19.7-10.03.53-.29,1.06-.6,1.59-.91,2.76-1.6,5.61-3.36,8.52-5.25.35-.22.71-.45,1.06-.68,1.41-.94,2.72-1.82,3.95-2.67.34-.23.68-.47,1.01-.7,25.2-17.61,44.57-39.38,57.57-64.71,18.73-36.47,19.44-70.6,19.86-91,.32-15.55.99-47.63-13.44-85.66-3.86,3.01-7.4,5.7-10.58,8.07-20.79,15.55-36.29,25.3-64.75,47.91-9.2,7.31-18.55,15.01-27.97,25.96.01.56.02,1.12.03,1.69v.04c.04,2.4.04,4.93.01,7.72-.02,3.89-.11,7.84-.27,11.69-.88,21.92-1.79,44.55-10.79,72v.03l-.47,1.41c-.64,1.89-1.32,3.91-2.07,6.06-.09.25-.18.51-.27.76-.73,2.02-1.43,3.9-2.14,5.71h0c-.93,2.37-1.86,4.58-2.84,6.78-.64,1.43-1.29,2.84-1.97,4.23-3.34,6.96-7.14,13.46-11.52,19.77-.48.7-.96,1.37-1.42,2.03-.63.87-1.25,1.71-1.86,2.52-.14.19-.31.42-.48.63-.45.6-.92,1.2-1.39,1.8.16.23.32.45.47.67-.15-.22-.31-.44-.48-.66-1.37,1.74-2.82,3.5-4.38,5.32-.31.36-.63.72-.95,1.08-.86.98-1.74,1.95-2.63,2.92-.24.26-.49.52-.74.78-4.44,4.72-9.23,9.19-14.28,13.32v122.45h175.07v-105.86h-11.33c-3.94,10.18-10.35,17.47-19.1,21.75-.91.45-1.85.86-2.81,1.24-1.19.47-2.41.89-3.67,1.26-1.49.43-3.04.8-4.67,1.1l-.69.13c-2.5.44-5.13.73-7.98.86-1.13.05-2.3.08-3.51.08h-73.1v-25.26l4.81-1.85c.46-.18.93-.36,1.43-.56-.12-.13-.24-.27-.36-.41.13.14.25.28.37.41.82-.32,1.7-.67,2.62-1.04Z" style="fill: rgb(113, 2, 34);"/>
            <path class="cls-2" d="M593.72,515c10.17,12.55,15.53,26.35,19.84,37.44,2.77,7.14,5.03,14.24,6.84,21.61,4.36-3.67,9.4-7.8,15.26-12.47,19.53-15.56,26.23-19.59,43.17-32.46,6.68-5.08,14.91-11.5,24.32-19.25-.06-.08-.12-.17-.19-.26-13.82-18.25-30.26-34.03-48.88-46.91-10.2-7.06-38.3-24.51-78.88-34.01-18.29-4.28-37.12-6.45-55.99-6.45h-1c-18.93,0-37.76,2.17-56.04,6.45-40.52,9.48-68.67,26.94-78.9,34.01-42.88,29.65-64.46,68.11-73.5,88.39-19.06,42.78-18.28,80.49-17.94,96.59.11,5.46.24,10.87.62,17.07.05.81.1,1.63.17,2.47,18.59,5.27,31.97,11.65,36.74,14.01,15.15,7.49,25.21,14.82,37.12,23.48,9.29,6.77,17.35,12.68,27.02,22.11,8.76,8.52,14.8,15.99,21.41,24.17,2.69,3.31,9.22,11.5,17.01,22.7,2.17,3.12,4.19,6.12,6.06,8.96,8.1,12.31,13.26,21.57,14.57,23.93,7.2,12.99,11.74,23.14,16.46,33.86v-28.18c-9.33-7.65-17.69-16.34-24.86-25.88-1.35-1.8-2.63-3.58-3.84-5.35-11.88-17.38-17.15-33.23-20.43-43.07-9.27-27.84-10.19-50.71-11.08-72.83-.8-19.95.03-39.54,2.47-58.28,2.15-16.4,4.36-33.35,12.54-54.41,4.54-11.7,9.68-24.92,19.82-37.41,20.1-24.49,45.16-36.89,74.5-36.89h1.17c29.26,0,54.33,12.4,74.42,36.86Z" style="fill: rgb(113, 2, 34);"/>
          </g>
          <path class="cls-2" d="M774.35,975.5c-1.16-2.26-2.4-4.69-3.8-7.25-.55-1.02-1.13-2.07-1.75-3.14-2.75-4.8-6.08-10-10.38-15.47v.07h-26.32c.17.17.35.35.53.54.28.28.56.57.85.87.4.41.81.83,1.23,1.28.81.86,1.68,1.79,2.57,2.79.34.37.69.76,1.04,1.16,1.05,1.19,2.15,2.47,3.28,3.84,6.71,8.09,11.51,15.47,14.64,20.83,6.47,11.08,10.11,20.18,11.65,24.26,2.34,6.18,3.82,11.29,4.66,14.42,1.22,4.53,4.06,15.89,5.01,30.99,1.06,16.69-.73,29.35-1.21,32.55-2.12,14.18-5.8,24.51-6.99,27.71-1.96,5.27-5.45,14.54-12.6,25.21-3.69,5.51-7.31,9.84-10.17,12.97l-1.21,1.25c-.92.84-2.29,2.07-3.99,3.52-7.92,6.78-21.69,18.39-40.98,26.87-17.36,7.62-32.2,9.62-36.78,10.16-4.73.56-21.6,2.27-42.93-2.33-5.83-1.26-15.67-3.44-27.26-9-16.16-7.75-26.2-17.49-33.73-24.93-20.73-20.46-31.08-41.56-37.88-55.75-3.45-7.19-8.1-17.81-12.3-31.14-1.57-4.98-6.31-20.56-10.49-52.7-2.63-20.23-1.26-17.89-4.79-52.32-3.23-31.41-5.36-42.95-7.51-52.45-.14-.61-.28-1.23-.44-1.86-.15-.63-.3-1.26-.47-1.9-.11-.47-.24-.94-.36-1.42-.11-.44-.23-.89-.35-1.33-.11-.45-.24-.9-.36-1.35-.24-.9-.49-1.82-.75-2.73-.18-.63-.36-1.27-.54-1.9-.05-.18-.1-.35-.15-.53-.65-2.25-1.32-4.52-2-6.77-.2-.67-.41-1.35-.61-2.02-1.02-3.36-2.03-6.66-2.97-9.78-.18-.6-.36-1.18-.53-1.75-.07-.23-.14-.45-.21-.68-.07-.22-.13-.44-.2-.66-.1-.32-.19-.64-.29-.95-.27-.89-.54-1.73-.79-2.53-.2-.64-.39-1.25-.58-1.84-.05-.15-.1-.3-.14-.45-.07-.24-.15-.48-.23-.72-.08-.24-.15-.47-.22-.69-.13-.4-.26-.79-.38-1.17-1-3.04-1.87-5.5-2.81-8.04-.81-2.18-1.57-4.14-2.35-6.06-.72-1.78-1.46-3.53-2.27-5.4-.08-.2-.17-.41-.27-.62-1.08-2.49-2.29-5.2-3.75-8.47-5.03-11.27-8.47-18.97-13.98-29.18-4.67-8.63-8.64-15.03-11.05-18.91-5.73-9.19-10.5-15.96-13.73-20.54-5.08-7.2-9.1-12.49-12.09-16.41-4.81-6.31-7.21-9.46-10.44-13.21-2.66-3.07-7.16-8.25-13.56-14.07-3.8-3.46-7.71-6.41-15.36-12.17-7.51-5.65-12.38-9.31-19.34-13.99-6.43-4.31-12.12-8.13-20.29-12.51-6.2-3.34-14.58-7.4-24.78-11.14-.55-.2-1.09-.4-1.61-.58-.24-.09-.47-.17-.7-.25-.01,0-.02-.01-.03-.01-.59-.21-1.18-.41-1.76-.61-.66-.23-1.31-.44-1.95-.65-1.28-.42-2.52-.81-3.73-1.18-.61-.19-1.22-.37-1.81-.54-1.19-.35-2.37-.69-3.53-1.01-2.51-.7-4.97-1.34-7.5-1.99-.07-.02-.13-.04-.2-.05-.74-.2-1.48-.38-2.2-.57-.42-.11-.84-.21-1.26-.32-1.44-.35-2.84-.69-4.2-1-2.41-.57-4.67-1.07-6.77-1.51l-9.74-1.61v-1.03c-.17-.89-.94-1.59-1.89-1.66-1.75-.19-2.83-.52-4.5-.85-2.97-.58-5.14-1.05-5.59-1.13-5.56-1.02-9.58-1.41-14.22-1.87-6.68-.66-13.37-1.17-20.04-1.95,0,0-5.64-.66-14.17-.22-.3.02-1.46.08-2.94.44-1.22.29-3.2.79-5.04,2.33-.51.43-.31.35-1.13,1.11-.97.88-2.25,2.06-4.03,2.92-1.48.72-2.75.95-3.62,1.1-1.22.21-2.31.24-3.2.21-13.3-.96-26.6-1.94-39.91-2.95-16.23-1.23-32.46-2.5-48.69-3.8-.26,0-.7,0-1.23.09-3.89.66-6.11,4.9-6.73,6.08-.58,1.12-.84,1.94-1.34,3.51,0,.05-.03.09-.04.14-1.1,3.52-1.38,6.33-1.45,7.1-.33,3.69.07,6.48.35,8.33.04.29.56,3.67,1.87,6.63.24.52.61,1.3,1.32,2.11.98,1.13,2,1.65,2.27,1.77,0,0,.72.35,1.57.53.09.02.18.04.27.06,7.54,1.55,12.92,1.59,20.14,1.62,3.98.02,7.93.48,11.9.69,10.93.58,13.22.92,30.79,2.16,10.02.71,15.83,1.09,24.42,2.39.56.08,2.71,0,5.26.85.84.28,2.06.69,3.42,1.63,1.63,1.12,2.72,2.47,3.54,3.5.7.87.51.76.96,1.26,1.59,1.8,3.47,2.59,4.62,3.06,1.42.57,2.56.81,2.85.87,8.36,1.71,14.04,1.91,14.04,1.91,6.71.23,13.41.72,20.11,1.07,4.65.24,8.68.45,14.34.28.46-.01,2.67-.16,5.7-.28,1.23-.06,2.16-.16,3.24-.18.41-.01.85-.01,1.33,0h.09c.82.01,1.54-.47,1.87-1.17.02-.04.04-.08.05-.13.1-.28.14-.45.15-.62.01-.15.02-.3.02-.45.08-1.33.08-2.66.01-3.99,0-.07,0-.14-.02-.21,1.85.27,12.56,1.87,12.58,1.87.39.05.94.14,1.61.25,2.2.35,4.33.75,6.39,1.19.01,0,.02,0,.02,0,2.42.51,4.75,1.07,6.98,1.67,3.07.81,5.95,1.7,8.64,2.62.83.28,1.64.57,2.44.85.39.15.79.29,1.18.43.14.06.29.12.44.17,1.01.38,1.98.76,2.93,1.13.13.06.27.11.4.17.58.23,1.15.47,1.71.7,4.97,2.08,8.97,4.07,11.92,5.56,30.63,15.43,55.67,41.54,59.25,45.32,19.17,20.26,30.08,38.76,38.22,52.77.61,1.05,1.65,2.85,3.01,5.33,1.43,2.6,3.22,5.95,5.25,9.97,5.08,10.04,11.67,24.25,17.9,41.34,2.41,6.59,9.52,26.69,15.41,55.41.5,2.44.99,4.94,1.46,7.5.46,2.45.91,4.95,1.34,7.5.91,5.4,1.76,11.03,2.51,16.87.24,1.82.75,7.02,1.37,13.32.05.57.11,1.14.17,1.72.09.88.17,1.77.26,2.68,0,.04.01.08.02.12.13,1.04.28,2.11.43,3.2.15,1.09.32,2.2.51,3.34.09.57.18,1.14.28,1.72h0c.09.58.19,1.16.3,1.74.1.59.21,1.19.32,1.78.1.6.21,1.2.33,1.81.11.61.23,1.22.35,1.84.47,2.47.99,5,1.56,7.6.14.69.29,1.38.45,2.08.19.88.39,1.76.59,2.65.27,1.19.55,2.39.84,3.61,2.38,10.17,5.28,21.12,8.51,32.39,5.63,19.68,11.81,41.29,26.54,66.09,5.7,9.59,13.62,22.7,25.83,36.19,6.95,7.69,15.31,15.51,25.45,22.86,12.23,8.87,43.08,30.59,88.58,31.85,10.79.3,52.99.3,92.98-29,28.95-21.21,42.23-47.14,46.36-55.94,2.34-4.97,12.45-27.24,13.72-58.28,1.69-41.36-13.42-71.93-20.82-86.45ZM182.59,691.82s-.11.1-.22.15c-.01,0-.04.01-.12.04-.15.04-.27.06-.29.06-.23.04-.45.06-.5.06-.23.02-.41.03-.69.04,0,0-.34.01-.64,0-8.21-.12-21.38-1.91-21.38-1.91-4.37-.6-9.31-1.27-15.83-1.81-3.83-.33-7.31-.5-14.28-.85-9.99-.49-14.99-.74-16.7-.81,0,0-7.55-.27-13.99-1.39-.41-.07-1.98-.38-2.72-.55-.03-.01-.15-.03-.31-.07-.43-.11-.8-.2-1.2-.35-.23-.09-.46-.18-.73-.35-.09-.05-.39-.24-.78-.64-.25-.25-.63-.64-.94-1.24-.48-.92-.51-1.77-.52-2.2-.01-.54.06-1.01.09-1.22.04-.26.09-.48.2-.92.03-.14.14-.59.38-1.46.14-.51.15-.55.22-.8.08-.31.17-.65.34-1.54h-.01c.07-.34.15-.79.24-1.3t.01-.02c.02-.1.04-.19.05-.27,0-.02,0-.05,0-.07.01-.02.01-.04.01-.06s.01-.04.01-.05c.01-.06.02-.13.03-.19.03-.15.05-.29.09-.48.03-.16.06-.32.09-.48.21-.98.4-1.66.4-1.66.32-1.16.48-1.74.86-2.2.17-.2.44-.54.91-.77,0,0,.52-.25,1.16-.25,1.37,0,74.31,5.86,87.1,6.88.36.03.63.34.61.71-.12,2.32-.25,4.65-.37,6.97-.2,3.67-.39,7.33-.59,11ZM242.71,690.59l.93,4.13c.32,1.41.47,2.86.44,4.31,0,.13-.03.25-.08.37-.14.34-.46.58-.84.61-.12.05-.26.08-.4.07-.87.01-1.42.11-2.26.19-.8.07-1.33.11-1.85.16-.36.04-.59.06-.64.07-.13.01-.27.02-.43.04-.19.01-.44.03-.74.04-4.65.25-15.87.09-15.87.09-3.28-.04-8.39-.43-18.6-1.21-.73-.05-1.69-.14-2.76-.7-4.03-2.15-4.59-8.57-4.58-12.44l-.05-.03c.09-3.52.7-11.28,5.34-13.42,1.1-.51,2.07-.54,2.79-.55,10.24-.19,15.37-.28,18.64-.14,0,0,10.21.43,15.17.92.74.07,1.26.13,1.59.18.92.15,1.51.24,2.79.42.83.12,1.37.26,2.24.31.16,0,.3.05.43.12.33.09.6.32.7.63.05.12.07.25.06.38-.05,1.45-.28,2.88-.68,4.28l-1.17,4.06c-.3,1.05-.5,2.12-.6,3.2,0,1.31.14,2.63.43,3.91ZM474.87,934.66c.04,1.02-.69,1.89-1.65,2.06-.89.15-1.81-.37-2.16-1.24-.07-.25-.14-.49-.21-.74-.06-.24-.13-.48-.2-.72-.04-.12-.07-.25-.11-.37-.07-.25-.14-.49-.2-.71-.07-.23-.13-.45-.19-.65-.31-1.08-.63-2.15-.94-3.22-.06-.22-.13-.44-.2-.66,0-.03-.01-.05-.02-.07-.24-.82-.49-1.64-.74-2.45-.32-1.05-.64-2.09-.97-3.13-.61-1.96-1.23-3.89-1.84-5.79-.37-1.13-.74-2.25-1.12-3.37-.27-.82-.54-1.63-.82-2.44-1.06-3.13-2.14-6.18-3.23-9.17-1.36-3.75-2.73-7.39-4.12-10.91-1.03-2.64-2.06-5.22-3.1-7.73-1.21-2.95-2.42-5.8-3.62-8.57-.3-.67-.59-1.33-.88-1.99-.74-1.68-1.47-3.32-2.21-4.94-.36-.8-.73-1.6-1.09-2.38-1.45-3.15-2.88-6.15-4.27-9.01-14.34-29.42-32.71-66.82-70.19-101.52-30.09-27.86-55.53-38.34-61.38-40.66-1.82-.72-3.67-1.43-5.52-2.12-.85-.32-1.7-.63-2.55-.94-.26-.1-.53-.19-.79-.29-.03-.01-.07-.02-.1-.04-1.45-.52-2.89-1.03-4.33-1.54-1.47-.51-2.93-1.02-4.36-1.51-1.24-.42-2.46-.84-3.66-1.24-1.28-.44-2.53-.86-3.75-1.27-.36-.12-.71-.24-1.07-.36-2.52-.85-4.91-1.66-7.11-2.42-1.25-.44-2.44-.87-3.56-1.27-.75-.27-1.46-.54-2.14-.8-.04-.01-.12-.04-.25-.09-.06-.02-.13-.04-.21-.07-.06-.02-.13-.04-.21-.07-2.3-.73-9.74-3.05-13.82-4.33l-.09-.5c-.01-.08-.03-.16-.04-.24-.91-5.43-.58-11.01.98-16.3l.13-.43h4.74c4.01-.13,10.24.41,17.06,1.46,2.52.37,5.12.82,7.72,1.33,2.64.51,5.27,1.09,7.81,1.71,3.88.95,7.55,2.02,10.71,3.16.4.14.78.28,1.16.43,9.43,3.62,24.29,10.19,40.54,21.5,9.07,6.31,18.49,14.05,31.46,27.45,9.47,9.78,34.59,35.75,54.91,70.71.46.8.92,1.6,1.37,2.39.23.39.45.79.67,1.19.33.57.65,1.14.96,1.71.59,1.07,1.18,2.15,1.75,3.22.38.7.75,1.39,1.11,2.08.47.89.93,1.77,1.38,2.66.41.8.82,1.61,1.23,2.41.92,1.85,1.83,3.7,2.71,5.55.43.88.84,1.77,1.25,2.65.86,1.85,1.7,3.7,2.52,5.55.34.79.69,1.59,1.03,2.38.57,1.32,1.13,2.64,1.67,3.95h.01c.54,1.33,1.08,2.64,1.6,3.95.35.87.69,1.74,1.03,2.61,1.07,2.77,2.1,5.52,3.08,8.25.58,1.58,1.13,3.15,1.66,4.72.29.86.58,1.71.86,2.56.29.85.57,1.7.84,2.55.28.85.55,1.7.81,2.54.27.84.53,1.69.79,2.52.58,1.88,1.13,3.74,1.66,5.58.4,1.37.79,2.72,1.16,4.07.48,1.74.95,3.47,1.39,5.18.21.81.42,1.61.62,2.41.2.8.4,1.6.6,2.39.39,1.59.77,3.16,1.13,4.72.37,1.56.71,3.1,1.05,4.63.3,1.38.59,2.75.87,4.1.13.6.25,1.2.37,1.8.84,4.11,1.57,8.08,2.22,11.91.21,1.26.42,2.5.61,3.72.07.45.14.9.21,1.34.22,1.38.42,2.72.61,4.04.09.59.17,1.17.25,1.75l.24,1.71c.08.57.15,1.13.23,1.69.07.56.14,1.11.21,1.66,0,.1.02.19.04.29v.03Z" style="fill: rgb(113, 2, 34);"/>
          <path class="cls-2" d="M961.68,496.27c-.25-4.04-1.26-8-1.26-8-1.86-7.34-2.79-11-4.15-14.81-1.41-3.95-3.25-8.49-8.24-18.43-3.12-6.24-6.17-12.18-11.22-21.05-11.78-20.65-23.97-37.28-23.97-37.28-11.04-15.09-20.52-25.5-28.07-33.82-2.2-2.41-9.48-10.38-19.43-20.18-6.4-6.3-10.73-10.23-13.07-12.32-4.03-3.6-7.59-6.78-12.74-10.73-1.74-1.33-5.8-4.4-11.26-7.99-.99-.66,0,.01-9.1-5.61,0,0-4.08-2.52-9.46-4.85-.37-.16-1.46-.63-2.97-.89-.99-.17-2.46-.41-4.19.08-.72.2-1.52.44-2.25,1.14-.62.61-.91,1.3-1.22,2.05-.14.34-.4,1.03-.59,2.13-.05.26-.08.5-.11.74h0c-.16,1.2-.12,2.14-.1,2.65.02.39.04.77.07,1.14.06.81.14,1.57.22,2.24.23,1.89.5,3.13.5,3.13.82,3.77,1.81,6.81,2.24,8.08.1.27.16.45.2.55,2.93,8.15,5.42,13.53,5.42,13.53,5.85,12.61,9.29,20.03,15.19,30.1,3.29,5.61,7.93,12.36,17.2,25.88,1.14,1.66,2.2,3.2,3.2,4.67.01.02.02.04.04.06,0,0,0,.01.01.01h0s.03.06.06.1c4.54,6.61,8.11,11.72,12.91,18.27,5.95,8.13,11.21,15.29,18.99,24.6,9.59,11.48,17.49,19.59,20.28,22.42,3.58,3.63,6.81,6.68,13.27,12.77,6.83,6.45,13.97,13.02,22.08,19.36,0,0,4.92,3.84,12.48,7.8.54.29,1.1.58,1.67.86.52.26,1.8.89,3.56,1.46,1.39.45,3,.96,5.03,1.03.16.02.32.02.48.02h.36c1.68-.02,3.13-.04,4.68-.99.4-.24,2.16-1.39,2.87-3.53.18-.54.22-1.06.32-2.08.09-1.05.2-2.36.07-4.31ZM949.71,496.8c-.04.74-.06,1.12-.19,1.5-.5,1.46-1.95,1.96-2.28,2.06-1.27.41-2.5.13-3.93-.17-2.05-.46-3.65-1.26-5.01-1.96-1.51-.77-2.62-1.49-3.07-1.78-7.38-4.86-12.34-9.27-12.34-9.27-7.11-6.34-13.43-12.66-19.47-18.83-5.72-5.83-8.57-8.75-11.75-12.16-2.48-2.67-9.5-10.29-18.09-20.76-6.96-8.49-11.7-14.89-17.07-22.13-5.33-7.2-8.99-12.39-14.68-20.48-8.4-11.93-12.59-17.9-15.61-22.74-5.41-8.69-8.62-14.92-14.08-25.5,0,0-2.32-4.51-5.13-11.18-.21-.49-1.4-3.33-2.42-6.93,0,0-.64-2.26-.94-5.02-.04-.47-.13-1.39.04-2.49.13-.79.32-1.26.42-1.48.23-.5.45-.96.96-1.29.58-.39,1.25-.4,1.85-.41,1.45-.02,2.7.44,3.54.77,1.29.49,2.24,1.05,2.55,1.24,4.65,2.81,8.21,5.5,8.21,5.5,7.93,6,7.06,5.3,7.94,5.98,4.76,3.77,8.33,6.87,9.86,8.21,4.51,3.96,7.66,7.04,11.22,10.53,2.06,2.02,5.88,5.82,11.56,11.79,8.82,9.28,15.31,16.68,17.27,18.91,6.73,7.71,15.18,17.37,25.14,30.82,0,0,11,14.84,21.81,32.6,4.63,7.62,7.45,12.67,10.35,17.95,4.62,8.41,6.37,12.16,7.72,15.4,1.31,3.11,2.24,6.04,4.12,11.88,0,0,1.01,3.17,1.39,6.24.19,1.48.15,2.43.11,3.2Z" style="fill: rgb(113, 2, 34);"/>
          <path class="cls-2" d="M773.75,525.44c-.41-.22-.82-.45-1.23-.7-.35-.21-.75-.46-1.19-.76-.37-.23-.75-.5-1.21-.82-.56-.4-1.07-.77-1.57-1.16-.25-.19-.53-.41-.81-.64-1.16-.91-2.38-1.96-3.61-3.11l-.06-.06c-.05-.04-.1-.09-.14-.13-.34-.32-.69-.65-1.03-.98-.1-.09-.19-.18-.29-.28-.21-.2-.42-.4-.63-.62-.28-.28-.57-.57-.85-.86-.83-.85-1.68-1.75-2.51-2.67l-.1-.1c-.48-.53-.96-1.07-1.43-1.61l-.11-.12-.11-.14c-.23-.26-.45-.53-.67-.79-.11-.12-.2-.24-.3-.35l-.06-.08c-.19-.21-.39-.46-.59-.71-.39-.47-.8-.98-1.21-1.48l-.68-.87-.34-.43-.02-.02-.02-.03c-2.85-3.71-5.36-7.42-7.47-11.04-.1-.16-.2-.34-.29-.5-.16-.28-.32-.55-.46-.81-1.47-2.62-2.68-5.13-3.6-7.44-.13-.32-.25-.64-.37-.95-.12-.32-.23-.63-.33-.94-.21-.56-.4-1.16-.59-1.81-.09-.31-.18-.62-.25-.93l-11.57,9.17-4.36,3.45c-.13.1-.32.54-.32,1.46,0,.09,0,.19.01.28l.03.41v.09s.01.07.01.07c.01.16.02.29.04.4l.07.39v.04c.03.16.06.32.09.48l.02.12c.02.07.03.15.05.23.04.18.09.37.15.6l.06.24h0s.01.05.01.07l.13.12.25,1.1.06.2c.05.18.12.36.18.53l.04.1c.15.45.34.94.58,1.5v.03s.02.03.02.03c.06.14.12.28.18.43l.11.25c.8,1.86,1.82,3.89,3.03,5.99.43.75.86,1.47,1.27,2.14.1.17.19.31.28.45l.02.03.02.03c.28.45.56.89.85,1.33.67,1.03,1.31,1.98,1.97,2.92.2.28.4.57.61.85l.02.02.02.03c.72,1.02,1.51,2.08,2.42,3.25.36.46.72.9,1.07,1.34.56.69,1.12,1.37,1.75,2.1v.02s.03.02.03.02c.38.45.76.88,1.14,1.31.08.09.16.18.25.28.43.49.86.96,1.29,1.43l.06.06c3.22,3.46,6.45,6.36,9.33,8.39l.35.25.34.23c.4.27.84.53,1.25.78.41.24.82.48,1.27.71.04.02.09.05.14.07.17.08.33.15.49.23.38.17.73.31,1.04.41l.13.04c.06.02.13.05.19.06l.08.02.04.02c.05.01.1.03.15.04l.15.03.05.02c.07.01.12.02.17.03.1.02.23.04.4.06h.09s.07.02.07.02h.12c.08,0,.34,0,.42-.07l5.05-4h.01l11-8.71-.14-.08Z" style="fill: rgb(113, 2, 34);"/>
          <path class="cls-2" d="M748.99,539.56c-.25-.17-.49-.34-.74-.51-.77-.55-1.56-1.14-2.36-1.78-.01,0-.02.01-.03.02-.5.43-.99.86-1.48,1.28-.97.84-1.92,1.66-2.86,2.45-.49.42-.98.84-1.46,1.24-.43.37-.86.73-1.29,1.09-.45.38-.9.75-1.34,1.12-1.14.96-2.26,1.88-3.33,2.77-.29.23-.58.47-.86.7-1.84,1.5-3.57,2.9-5.19,4.18-.44.36-.87.7-1.29,1.03-.15.12-.31.24-.47.37-.14.11-.29.23-.44.35-.57.44-1.19.92-1.86,1.45-.24.18-.48.37-.74.57-.52.41-1.06.82-1.6,1.23-.28.2-.57.42-.86.65-1.22.92-2.53,1.92-3.92,2.97-13.65,10.32-35.27,26.27-50.79,37.43-.52.29-1.09.46-1.65.52-1.28.13-2.57-.3-3.49-1.23-.11-.1-.21-.21-.3-.32-1.25-1.54-1.27-3.78-.02-5.37,12.72-13.43,44.35-41.09,58.08-55.26.13-.14.25-.27.38-.4.23-.25.46-.49.68-.72l5.01-5.28.39-.41,5.39-5.69,1.36-1.43c-.73-.93-1.43-1.87-2.11-2.83-.22-.3-.44-.61-.66-.92-.71-1.01-1.39-2.02-2.05-3.04-.31-.47-.61-.94-.91-1.42-.11-.17-.22-.35-.33-.53-.47-.76-.92-1.52-1.35-2.27-1.28-2.23-2.39-4.42-3.28-6.49-.11-.26-.22-.51-.32-.76-.25-.6-.48-1.19-.68-1.77-.1-.27-.2-.55-.28-.82-.04-.1-.07-.2-.09-.29-.16.13-.31.26-.47.4,0,0-.01,0-.01.01-.5.43-.99.85-1.47,1.26l-.66.57c-1.97,1.69-3.89,3.31-5.74,4.85h0c-.52.44-1.03.87-1.54,1.29-.73.61-1.45,1.2-2.16,1.78-.71.59-1.4,1.16-2.09,1.72h-.01c-.87.71-1.71,1.39-2.53,2.06-1.07.86-2.1,1.68-3.1,2.48-13.16,10.49-25.01,19.07-26,19.78-5.74,4.15-8.6,6.06-18.39,13.18-7.1,5.17-11.54,8.4-17.58,13.08-3.35,2.59-7.45,5.77-12.72,10.16-.55.46-1.08.9-1.6,1.34-.35.3-.7.59-1.04.88-.51.43-1.01.86-1.5,1.28-.63.54-1.24,1.06-1.82,1.56-.08.07-.17.15-.25.22-.31.27-.62.54-.91.8-.05.05-.11.09-.16.14-.61.54-1.19,1.05-1.74,1.53-.08.07-.15.14-.23.21h-.01c-.23.2-.45.4-.66.59-.22.2-.44.38-.64.57-.01.01-.03.02-.04.03h0s-.01.01-.01.01c-.12.12-.23.21-.35.32-.78.71-1.46,1.32-2.02,1.83-.19.18-.37.34-.53.48-.32.3-.59.54-.8.74-.32.3-.66.61-1,.93-.24.21-.48.43-.72.66-.35.32-.7.65-1.06.98-.49.46-1,.94-1.53,1.44-.78.73-1.59,1.51-2.43,2.32-.95.91-1.93,1.87-2.95,2.89-.26.25-.52.51-.77.77-.27.26-.53.52-.79.79-1.05,1.06-2.14,2.17-3.25,3.34-.57.59-1.13,1.19-1.7,1.8-1.15,1.22-2.32,2.5-3.52,3.83-.54.59-1.08,1.19-1.62,1.81-8.37,9.49-12.81,15.9-15.62,20.3-.82,1.29-1.49,2.37-1.94,3.12-.01,0-.02.03-.02.04-.12.28-.25.57-.37.87-.13.29-.26.59-.39.9-.26.61-.52,1.24-.8,1.88-.17.43-.35.87-.53,1.32-.68,1.66-1.38,3.43-2.1,5.31-.06.17-.12.34-.19.51-.09.25-.19.51-.29.77-.12.33-.25.67-.37,1.01-.27.74-.55,1.49-.82,2.25-.02.06-.04.13-.07.19-.67,1.89-1.34,3.86-2.01,5.92-.19.57-.38,1.15-.57,1.74-.2.66-.41,1.32-.62,2-2.96,9.64-5.19,16.9-6.39,26.94-1.71,14.37-.25,25.6.78,33.13,1.06,7.73,2.4,17.13,6.9,28.48,2.31,5.83,5.09,11.25,12.78,23.14,1.19,1.84,2.36,3.63,3.52,5.36.5.76,1,1.5,1.49,2.23.08.11.15.22.22.33h.01c.6-.82,1.2-1.67,1.83-2.58.52-.74,1.02-1.49,1.52-2.24-.46-.65-.91-1.31-1.36-1.98-.23-.34-.45-.67-.68-1.02-1.49-2.23-2.98-4.6-4.45-7.12-.37-.65-.75-1.3-1.13-1.98-.75-1.35-1.49-2.73-2.23-4.17-.31-.62-.63-1.25-.94-1.89-.32-.65-.63-1.3-.94-1.96-.28-.59-.55-1.19-.83-1.8-.25-.56-.5-1.12-.74-1.69-.28-.64-.56-1.29-.83-1.95-8.66-20.95-9.67-38.63-9.84-42.21-1.53-32.4,11.16-56.5,16.06-65.53.44-.81.88-1.6,1.33-2.39.67-1.17,1.35-2.33,2.04-3.46.7-1.13,1.4-2.23,2.1-3.32,5.66-8.68,11.81-15.89,17.74-21.77.7-.7,1.4-1.38,2.1-2.04l.17-.17s.04-.04.06-.05c1.49-1.37,3.74-1.5,5.32-.34,1.48,1.09,2.07,3.08,1.39,4.86h0c-.13.17-.27.34-.4.5-.13.16-.26.31-.39.47-.31.37-.63.75-.94,1.13-.59.72-1.19,1.46-1.78,2.21-.34.44-.69.88-1.03,1.32-2.72,3.53-11.57,15.12-17.61,29.01-.79,1.81-3.17,7.43-5.28,15.56-2.26,8.76-4.22,20.43-3.53,33.39.12,2.26.32,4.49.6,6.7.06.51.13,1,.2,1.5v.03c.07.48.14.95.22,1.42.55,3.44,1.3,6.85,2.26,10.26.09.3.18.62.27.93.24.83.49,1.65.76,2.48.15.46.3.93.46,1.39.55,1.63,1.15,3.28,1.81,4.93.24.62.49,1.24.75,1.86.26.63.52,1.26.8,1.89,1.52,3.51,3.27,7.1,5.25,10.81.41.76.83,1.53,1.26,2.3,1.4,2.56,2.93,5.18,4.57,7.88.85-2.11,1.69-4.33,2.56-6.75.83-2.32,1.57-4.52,2.25-6.56v-.02c.05-.14.09-.27.14-.4l.03-.11c.03-.08.05-.16.08-.24h0c-.04-.1-.07-.18-.1-.26-1.82-4.76-5.04-13.37-5.62-25.21-.46-9.5.95-17.46,2.42-23.05,2.2-8.34,5.25-14.12,7.86-18.99.08-.15.17-.32.27-.51.1-.18.21-.38.33-.6s.25-.46.4-.72c.11-.19.22-.39.34-.59.35-.62.76-1.31,1.23-2.08.15-.23.3-.47.45-.72.26-.43.55-.89.86-1.37.37-.57.76-1.17,1.18-1.8.27-.41.55-.83.85-1.26h0c.11-.18.23-.34.34-.51.36-.51.73-1.04,1.12-1.59.39-.54.79-1.1,1.21-1.68.42-.57.86-1.17,1.32-1.77.45-.6.93-1.22,1.42-1.85.2-.26.41-.53.62-.79.41-.53.85-1.08,1.3-1.64.06-.08.12-.15.19-.23h0c1.43-1.78,3-3.64,4.7-5.59.75-.86,1.59-1.81,2.58-2.89h0c.05-.07.11-.13.17-.19.35-.38.71-.78,1.1-1.19.08-.09.17-.19.26-.28.3-.32.61-.65.94-.99.64-.67,1.32-1.37,2.05-2.11.46-.46.93-.94,1.41-1.42,3.05-3.03,6.8-6.57,11.41-10.62.66-.58,1.34-1.17,2.03-1.76,1.33-1.16,2.74-2.35,4.21-3.58.61-.51,1.21-1.01,1.79-1.48.29-.24.58-.48.86-.71,2.28-1.87,4.39-3.53,6.57-5.21.41-.31.83-.62,1.25-.94.41-.31.83-.63,1.26-.95.44-.33.89-.66,1.34-.99.35-.26.71-.53,1.07-.79.73-.54,1.48-1.09,2.26-1.66,4.21-3.04,9.29-6.66,16.31-11.71,23.06-16.57,34.59-24.85,44.98-33.06.12-.1.25-.2.38-.3.37-.29.75-.6,1.14-.91.52-.41,1.05-.83,1.59-1.27,1.08-.86,2.2-1.77,3.37-2.73.47-.38.94-.77,1.42-1.17.9-.74,1.82-1.5,2.77-2.3h.01s.02-.02.03-.03c.43-.37.86-.72,1.3-1.09.16-.13.32-.27.49-.41.74-.62,1.49-1.26,2.26-1.92.94-.79,1.89-1.61,2.86-2.45.97-.84,1.96-1.7,2.96-2.58-.48-.29-.97-.59-1.46-.92Z" style="fill: rgb(113, 2, 34);"/>
          <g>
            <path class="cls-2" d="M644.67,840.27h-10.12c-.28-.3-.57-.6-.86-.91,1.56-.65,3.13-1.33,4.7-2.03.81-.36,1.61-.72,2.41-1.1,1.26,1.32,2.55,2.67,3.87,4.04Z" style="fill: rgb(113, 2, 34);"/>
            <path class="cls-2" d="M693.87,840.12c-1.34.1-2.74.15-4.23.15h-11.42c-.15-.16-.31-.32-.46-.46-.15-.15-.3-.3-.44-.44l-.41-.41c-.68-.68-1.27-1.27-1.76-1.76-4.42-4.41-8.55-8.58-12.41-12.51,2.8-1.66,5.69-3.47,8.64-5.39.38-.25.74-.5,1.1-.74h.01c.37.39.73.78,1.09,1.15.33.34.65.67.96.99.23.24.46.48.68.71.22.23.44.46.66.68.44.46.87.9,1.28,1.32.4.41.79.81,1.17,1.2.39.39.77.78,1.14,1.15.14.15.29.3.43.44.19.19.38.39.57.58s.38.38.55.56c.6.59,1.16,1.16,1.71,1.71.13.12.26.25.38.38,1.57,1.56,3.06,3.03,4.63,4.58.26.26.53.53.81.8l.2.2c.07.06.14.14.21.21.29.28.58.57.88.88.02.01.04.03.05.04l.43.43c.14.14.29.28.44.44l.47.47c.16.15.32.31.48.48.33.32.66.66,1,1l1.16,1.16Z" style="fill: rgb(113, 2, 34);"/>
            <path class="cls-2" d="M823.71,1074.39c-1.61,24.52-7.19,42.24-8.84,47.27-2.34,7.09-4.74,12.91-6.6,17.08l-.16.37s-.03.06-.05.1c-2.39,4.26-5.11,8.68-8.2,13.19-.44.64-.89,1.28-1.35,1.93-.62.86-1.25,1.73-1.89,2.6-.29.39-.58.78-.88,1.17-.36.48-.73.97-1.1,1.45-.02.02-.03.04-.04.05-.1.13-.21.27-.31.4-.99,1.27-2.01,2.54-3.06,3.81-2.33,2.81-4.81,5.62-7.47,8.41-.57.59-1.44,1.51-2.62,2.67-.37.38-.78.78-1.22,1.2-.46.45-.97.93-1.51,1.45-.18.17-.36.35-.55.52-.89.82-1.86,1.72-2.92,2.65-.65.58-1.33,1.18-2.04,1.79-1.06.92-2.2,1.88-3.4,2.87-.4.33-.81.67-1.23,1-1.25,1.01-2.56,2.04-3.94,3.09-.02.02-.04.04-.06.05-1.83,1.39-3.77,2.82-5.82,4.26-1.04.73-2.1,1.46-3.2,2.2-.41.28-.83.56-1.26.85-1.25.81-2.53,1.64-3.85,2.46-3.04,1.9-6.92,4.21-11.58,6.66l4.31-2.45.02-.02c13.98-10.01,39.95-31.65,56.69-68.48,16.64-36.63,15.54-68.82,14.5-87.8-.98-17.89-2.3-42.11-15.13-68.06-6.15-12.45-14.58-24.54-17.35-28.49-.46-.65-.91-1.3-1.37-1.93-.52-.73-1.03-1.45-1.55-2.15-.53-.73-1.06-1.45-1.59-2.15-.42-.57-.84-1.12-1.25-1.67-1.33-1.75-2.62-3.41-3.87-4.97-1.37-1.72-2.68-3.33-3.94-4.82-.23-.29-.47-.57-.71-.85-.21-.25-.42-.5-.63-.75-.41-.48-.82-.96-1.22-1.42-.6-.69-1.18-1.35-1.73-1.98-.18-.21-.36-.42-.55-.62-.2-.24-.41-.47-.62-.7-.13-.16-.27-.31-.41-.46-.54-.6-1.05-1.16-1.53-1.69-.5-.55-.97-1.06-1.41-1.53-.28-.3-.55-.59-.8-.86v-15.2c.07.07.14.15.2.22,8.92,10.14,15.04,18.69,21.39,27.56,7.38,10.31,12.28,17.19,17.87,27.45.89,1.64,5.04,9.31,9.71,20.33,2.82,6.65,8.01,19.01,11.66,33.67,6.44,25.86,5.19,47.23,4.46,58.27Z" style="fill: rgb(113, 2, 34);"/>
            <path class="cls-2" d="M393.59,818.08c-27.57-14.25-61.07-38.81-81.9-79.4-.4-.77-.79-1.55-1.18-2.33,2.59,1.37,5.31,2.88,8.1,4.56,9.32,5.59,15.74,10.72,20.55,14.59,2.58,2.07,11.82,9.61,22.7,21.15,10.99,11.65,18.11,21.51,22.36,27.45,1.3,1.81,4.8,6.74,9.37,13.98Z" style="fill: rgb(113, 2, 34);"/>
          </g>
          <path class="cls-2" d="M891.1,472.24l-125.16,41.14-.12.12c-.2-.18-.39-.37-.59-.57-.26-.26-.53-.53-.79-.8-.81-.83-1.62-1.69-2.42-2.57-.52-.58-1.05-1.17-1.56-1.76-.02-.02-.03-.04-.05-.06-.25-.28-.49-.57-.73-.86-.12-.13-.22-.26-.33-.39-.18-.21-.36-.43-.54-.65-.39-.47-.78-.95-1.16-1.43-.34-.43-.68-.86-1.02-1.29-2.66-3.46-5.12-7.07-7.17-10.59-.08-.13-.16-.27-.23-.4-.15-.26-.3-.52-.44-.78-1.35-2.4-2.49-4.73-3.36-6.94-.12-.29-.23-.57-.33-.85-.11-.28-.21-.56-.3-.83-.1-.27-.19-.54-.27-.81-.09-.27-.17-.54-.25-.8-.08-.26-.15-.52-.21-.78-.07-.26-.14-.51-.19-.77-.05-.25-.1-.5-.15-.74l1.19-4,43.04-144.71,3.24-10.91c1.55,5.35,2.62,8.77,4.56,13.65,3.04,7.67,5.8,13.47,6.95,15.84.38.79.84,1.72,1.46,2.94h0s-46.84,115.33-46.84,115.33l-.06.14c-.52,1.27,1.24,2.21,2.01,1.07l.08-.12,60.06-88.97c.58,1.01,1.13,1.95,1.64,2.83,1.71,2.95,3.07,5.23,4.42,7.36,4.92,7.74,10.22,14.91,20.61,28.93,7.48,10.1,11.33,15.29,16.44,21.64,6.81,8.47,12.29,14.71,14.39,17.09,5.64,6.37,10.65,11.65,14.18,15.3Z" style="fill: rgb(113, 2, 34);"/>
        </g>
      </g>
    </g>
    <g id="HIGHLIGHT" transform="matrix(1, 0, 0, 1, 46.281322, -518.720581)">
      <g>
        <g>
          <path class="cls-1" d="M620.4,574.05c-2.32,1.96-4.44,3.78-6.4,5.49-2.38,2.08-4.51,3.99-6.45,5.75-.04-.18-.07-.36-.11-.54l-.16-.8c-.19-.91-.38-1.82-.59-2.74-1.81-8.05-4.13-15.67-7.11-23.33-4.13-10.65-8.82-22.71-17.49-33.4-17.3-21.07-37.89-31.34-62.87-31.34h-1.02c-25.06,0-45.63,10.27-62.95,31.38-8.63,10.63-13.31,22.68-17.44,33.32-7.54,19.4-9.64,35.44-11.66,50.95-2.34,17.9-3.13,36.64-2.37,55.71.89,22.07,1.73,42.9,10.34,68.72,3.53,10.62,8.87,26.67,22.01,44.14,7.12,9.46,15.53,18,24.99,25.37l2.89,2.26v72.88c-.1-.28-.19-.56-.29-.84-2.51-7.23-4.93-13.51-7.21-19.12-2.42-5.93-4.69-11.1-6.78-15.84-.24-.55-.48-1.09-.72-1.63v-28.18c-9.33-7.65-17.69-16.34-24.86-25.88-1.35-1.8-2.63-3.58-3.84-5.35-11.88-17.38-17.15-33.23-20.43-43.07-9.27-27.84-10.19-50.71-11.08-72.83-.8-19.95.03-39.54,2.47-58.28,2.15-16.4,4.36-33.35,12.54-54.41,4.54-11.7,9.68-24.92,19.82-37.41,20.1-24.49,45.16-36.89,74.5-36.89h1.17c29.26,0,54.33,12.4,74.42,36.86,10.17,12.55,15.53,26.35,19.84,37.44,2.77,7.14,5.03,14.24,6.84,21.61Z" style="fill: rgb(218, 119, 4);"/>
          <path class="cls-1" d="M714.67,500.23c-1.95,1.67-3.86,3.28-5.73,4.85-1.98,1.65-3.91,3.25-5.79,4.79-.06-.08-.12-.17-.19-.26-13.82-18.25-30.26-34.03-48.88-46.91-10.2-7.06-38.3-24.51-78.88-34.01-18.29-4.28-37.12-6.45-55.99-6.45h-1c-18.93,0-37.76,2.17-56.04,6.45-40.52,9.48-68.67,26.94-78.9,34.01-42.88,29.65-64.46,68.11-73.5,88.39-19.06,42.78-18.28,80.49-17.94,96.59.11,5.46.24,10.87.62,17.07.05.81.1,1.63.17,2.47-.89-.25-1.79-.5-2.71-.75-1.7-.46-3.36-.89-4.95-1.27-2.72-.68-5.27-1.25-7.61-1.74-.3-5.56-.41-10.5-.52-15.47-.35-17.1-1.19-57.16,19.24-103,9.68-21.72,32.78-62.9,78.67-94.63,10.93-7.55,41-26.21,84.01-36.27,19.4-4.55,39.39-6.85,59.41-6.85h1.06c20.01,0,39.99,2.3,59.4,6.85,43.08,10.08,73.1,28.73,84,36.27,19.81,13.71,37.33,30.49,52.05,49.87Z" style="fill: rgb(218, 119, 4);"/>
          <path class="cls-1" d="M633.69,839.36c1.56-.65,3.13-1.33,4.7-2.03.81-.36,1.61-.72,2.41-1.1,6.91-3.18,13.74-6.74,20.31-10.58.54-.31,1.08-.63,1.63-.96,2.8-1.66,5.69-3.47,8.64-5.39.38-.25.74-.5,1.1-.74h.01c1.52-1.02,2.9-1.96,4.21-2.87.35-.25.71-.5,1.06-.75,26.7-18.9,47.3-42.24,61.25-69.4,20.32-39.56,21.1-77.28,21.52-97.54.32-15.51,1.07-51.83-15.28-93.55-.29-.74-.58-1.48-.88-2.22-2.1,1.71-4.14,3.36-6.11,4.93-2.14,1.7-4.2,3.32-6.17,4.86,14.43,38.03,13.76,70.11,13.44,85.66-.42,20.4-1.13,54.53-19.86,91-13,25.33-32.37,47.1-57.57,64.71-.33.23-.67.47-1.01.7-1.23.85-2.54,1.73-3.95,2.67-.35.23-.71.46-1.06.68-2.91,1.89-5.76,3.65-8.52,5.25-.53.31-1.06.62-1.59.91-6.4,3.68-13.02,7.05-19.7,10.03-.79.35-1.59.7-2.38,1.04-1.51.66-3.01,1.29-4.46,1.89-.92.37-1.8.72-2.62,1.04h-.01c-.5.2-.97.38-1.43.56l-4.81,1.85v25.26h73.1c1.21,0,2.38-.03,3.51-.08,2.85-.13,5.48-.42,7.98-.86l.69-.13c1.63-.3,3.18-.67,4.67-1.1,1.26-.37,2.48-.79,3.67-1.26.96-.38,1.9-.79,2.81-1.24,8.75-4.28,15.16-11.57,19.1-21.75h11.33v105.86h-175.07v-122.45c5.05-4.13,9.84-8.6,14.28-13.32.25-.26.5-.52.74-.78.89-.97,1.77-1.94,2.63-2.92.32-.36.64-.72.95-1.08,1.56-1.82,3.01-3.58,4.38-5.32-.06-.09-.12-.18-.19-.27.07.09.13.18.2.26.47-.6.94-1.2,1.39-1.8.17-.21.34-.44.48-.63.61-.81,1.23-1.65,1.86-2.52.46-.66.94-1.33,1.42-2.03,4.38-6.31,8.18-12.81,11.52-19.77.68-1.39,1.33-2.8,1.97-4.23.98-2.2,1.91-4.41,2.84-6.77h0c.71-1.82,1.41-3.7,2.14-5.72.09-.25.18-.51.27-.76.75-2.15,1.43-4.17,2.07-6.06l.47-1.41v-.03c9-27.45,9.91-50.08,10.79-72,.16-3.85.25-7.8.27-11.69.03-2.79.03-5.32-.01-7.72v-.04c-.01-.57-.02-1.13-.03-1.69-1.82,2.1-3.63,4.32-5.44,6.68-.7.91-1.37,1.8-2.02,2.68h0c-3.2,4.37-5.75,8.35-7.79,11.93-.77,19.28-1.57,37.68-7.65,59.37-.77,2.73-1.61,5.51-2.56,8.35h0c-.03.09-.05.17-.08.25l-.03.11c-.05.13-.09.26-.13.4v.02c-.69,2.04-1.43,4.24-2.26,6.56-.87,2.42-1.71,4.64-2.56,6.75-.66,1.61-1.31,3.16-1.99,4.69-3.06,6.87-6.53,13.2-10.6,19.32-.5.75-1,1.5-1.52,2.24-.63.91-1.23,1.76-1.83,2.58h-.01c-.07-.11-.14-.22-.22-.33-.49-.73-.99-1.47-1.49-2.23-1.16-1.73-2.33-3.52-3.52-5.36-7.69-11.89-10.47-17.31-12.78-23.14-4.5-11.35-5.84-20.75-6.9-28.48-1.03-7.53-2.49-18.76-.78-33.13,1.2-10.04,3.43-17.3,6.39-26.94.21-.68.42-1.34.62-2,.19-.59.38-1.17.57-1.74.67-2.06,1.34-4.03,2.01-5.92.03-.06.05-.13.07-.19.27-.76.55-1.51.82-2.25.12-.34.25-.68.37-1.01.1-.26.2-.52.29-.77.07-.17.13-.34.19-.51.72-1.88,1.42-3.65,2.1-5.31.18-.45.36-.89.53-1.32.28-.64.54-1.27.8-1.88.13-.31.26-.61.39-.9.12-.3.25-.59.37-.87-.24.37-.48.74-.71,1.11-.17.26-.33.52-.49.78-.14.23-.28.45-.41.67-.06.1-.12.2-.18.3-.1.16-.19.31-.29.47-.09.15-.18.3-.27.45l-.54.9c-.36.6-.7,1.18-1.02,1.75-.33.57-.65,1.13-.95,1.67-.31.54-.6,1.06-.88,1.58h0c-.14.26-.27.51-.41.76-.13.25-.26.5-.39.74-.06.11-.11.21-.16.31-.2.39-.4.76-.58,1.12-.12.22-.23.44-.34.65-.33.65-1.34,2.62-2.55,5.26-1.92,4.18-4.29,9.38-6.39,16.66-.29,1.02-1.51,5.31-2.76,12.43-1.16,6.62-2.64,15.28-2.59,26.68.01,2.78.15,12.79,2.68,25.64,1.48,7.51,3.18,15.86,7.84,25.78,2.35,4.98,4.88,9.18,6.67,12.14.62,1.03,1.24,2.02,1.84,2.98.37.58.74,1.15,1.11,1.71.63.97,1.25,1.91,1.87,2.82.39.58.78,1.14,1.17,1.7.03.05.06.09.09.13.36.51.72,1.02,1.08,1.52.67.95,1.35,1.89,2.04,2.82-.34.4-.69.82-1.05,1.23-.75.86-1.51,1.72-2.3,2.58-.29.34-.6.68-.91,1.01-4.93,5.31-10.36,10.28-16.13,14.77l-2.89,2.25v144.73h205.07v-135.86h-37.44l-1.53,5.49c-2.7,9.74-7.4,15.63-14.8,18.55-.96.38-1.97.72-3.04,1-.6.17-1.22.31-1.86.44l-.71.13c-1.6.31-3.32.53-5.17.66-1.34.1-2.74.15-4.23.15h-58.08c.71-.3,1.42-.6,2.13-.91ZM700.47,846.83h-.01c-.19-.2-.39-.4-.58-.6.2.2.39.4.59.6Z" style="fill: rgb(218, 119, 4);"/>
        </g>
        <g>
          <path class="cls-1" d="M441.11,942.21c-.35-1.82-.85-4.37-1.52-7.5h-145.64v-105.86h11.32c6.8,17.72,20.75,26.38,42.46,26.42h66.15c-1.12-2.41-2.33-4.91-3.61-7.5-1.25-2.52-2.58-5.11-4-7.77-1.05-2-2.16-4.04-3.31-6.11-.77-1.38-1.53-2.72-2.28-4.02-2.52-4.39-4.93-8.35-7.09-11.79-27.57-14.25-61.07-38.81-81.9-79.4-.4-.77-.79-1.55-1.18-2.33-3.83-2.01-7.41-3.7-10.6-5.1-3.83-1.67-7.11-2.92-9.63-3.81.85,2.24,1.77,4.51,2.74,6.77,1.64,3.83,3.43,7.64,5.33,11.32,25.45,49.58,68,76.94,99.23,91.17,2.72,1.24,5.48,2.43,8.22,3.55v.02h-58.06c-17.07-.03-25.71-6.09-29.82-20.92l-1.53-5.5h-37.44v135.86h163.53c-.32-1.82-.66-3.71-1.02-5.66-.09-.49-.21-1.1-.35-1.84Z" style="fill: rgb(218, 119, 4);"/>
          <path class="cls-1" d="M251.09,714.69c-3.03.12-5.24.27-5.7.28-5.66.17-9.69-.04-14.34-.28-6.7-.35-13.4-.84-20.11-1.07,0,0-5.68-.2-14.04-1.91-.29-.06-1.43-.3-2.85-.87-1.15-.47-3.03-1.26-4.62-3.06-.45-.5-.26-.39-.96-1.26-.82-1.03-1.91-2.38-3.54-3.5-1.36-.94-2.58-1.35-3.42-1.63-2.55-.85-4.7-.77-5.26-.85-8.59-1.3-14.4-1.68-24.42-2.39-17.57-1.24-19.86-1.58-30.79-2.16-3.97-.21-7.92-.67-11.9-.69-7.22-.03-12.6-.07-20.14-1.62-.09-.02-.18-.04-.27-.06-.85-.18-1.57-.53-1.57-.53-.27-.12-1.29-.64-2.27-1.77-.71-.81-1.08-1.59-1.32-2.11-1.31-2.96-1.83-6.34-1.87-6.63-.28-1.85-.68-4.64-.35-8.33.07-.77.35-3.58,1.45-7.1.01-.05.03-.09.04-.14-1.12,1.3-1.83,2.65-2.14,3.24-.6,1.15-.86,1.99-1.38,3.65-1.1,3.52-1.38,6.33-1.45,7.1-.33,3.69.07,6.48.35,8.33.04.29.56,3.67,1.87,6.63.24.52.61,1.3,1.32,2.11.98,1.13,2,1.65,2.27,1.77,0,0,.72.35,1.57.53.09.02.18.04.27.06,7.54,1.55,12.92,1.59,20.14,1.62,3.98.02,7.93.48,11.9.69,10.93.58,13.22.92,30.79,2.16,10.02.71,15.83,1.09,24.42,2.39.56.08,2.71,0,5.26.85.84.28,2.06.69,3.42,1.63,1.63,1.12,2.72,2.47,3.54,3.5.7.87.51.76.96,1.26,1.59,1.8,3.47,2.59,4.62,3.06,1.42.57,2.56.81,2.85.87,8.36,1.71,14.04,1.91,14.04,1.91,6.71.23,13.41.72,20.11,1.07,4.65.24,8.68.45,14.34.28.46-.01,2.67-.16,5.7-.28,1.7-.08,2.82-.24,4.57-.17h.09c.82.01,1.54-.47,1.87-1.17.11-.23.18-.48.2-.75.1-1.61.11-3.23,0-4.84-1.08.02-2.01.12-3.24.18Z" style="fill: rgb(218, 119, 4);"/>
          <path class="cls-1" d="M804.28,1145.62s-.04.07-.06.1c-.33.55-.67,1.1-1.04,1.65-.35.55-.71,1.11-1.07,1.67-.34.54-.71,1.08-1.07,1.62-.39.58-.78,1.16-1.18,1.74-.44.64-.89,1.28-1.35,1.93-.07.1-.14.2-.21.3-.55.76-1.1,1.53-1.68,2.3-.29.39-.58.78-.88,1.17-.36.48-.73.97-1.1,1.45-.02.02-.03.04-.04.05-.1.13-.21.27-.31.4-.99,1.27-2.01,2.54-3.06,3.81-2.33,2.81-4.81,5.62-7.47,8.41-.57.59-1.44,1.51-2.62,2.67-.37.38-.78.78-1.22,1.2-.46.46-.97.94-1.51,1.45-.18.17-.36.35-.55.52-.89.82-1.86,1.72-2.92,2.65-.65.58-1.33,1.18-2.04,1.79-1.06.92-2.2,1.88-3.4,2.87-.4.33-.81.67-1.23,1-1.25,1.01-2.56,2.04-3.94,3.09-.02.02-.04.04-.06.05-.23.17-.46.35-.69.52-.23.18-.46.35-.69.53-.01-.01-.01,0-.01,0h0c-.94.71-1.9,1.42-2.9,2.13h-.01l-.75.54c-.25.18-.51.36-.77.54-1.04.73-2.1,1.46-3.2,2.2-.41.28-.83.56-1.26.85-1.26.84-2.57,1.68-3.9,2.51-3.15,1.97-7.21,4.38-12.1,6.94l.51-.29c-.15.08-.31.16-.46.24-12.11,6.36-29.29,13.68-50.23,17.75-13.86,2.69-48.62,7.7-86.44-3.27-13.49-3.91-27.36-9.85-40.82-18.66-25.02-16.37-40.33-37.24-48.21-48.17-14.26-19.78-22.44-38.53-26.42-47.78-6.7-15.58-10.37-28.11-11.65-32.64-5.62-19.86-7.6-36.09-9.2-49.59-.86-7.32-.61-6.94-3.32-34.28-.17-1.73-.35-3.47-.51-5.16-.01-.04-.02-.08-.02-.12-.09-.91-.17-1.8-.26-2.68-.06-.58-.12-1.15-.17-1.72-.62-6.3-1.13-11.5-1.37-13.32-.75-5.84-1.6-11.47-2.51-16.87-.43-2.55-.88-5.05-1.34-7.5-.47-2.56-.96-5.06-1.46-7.5-5.89-28.72-13-48.82-15.41-55.41-6.23-17.09-12.82-31.3-17.9-41.34-2.03-4.02-3.82-7.37-5.25-9.97-1.36-2.48-2.4-4.28-3.01-5.33-8.14-14.01-19.05-32.51-38.22-52.77-3.58-3.78-28.62-29.89-59.25-45.32-2.95-1.49-6.95-3.48-11.92-5.56-.56-.23-1.13-.47-1.71-.7-.13-.06-.27-.11-.4-.17-.95-.37-1.92-.75-2.93-1.13-.15-.05-.3-.11-.44-.17-.39-.14-.79-.28-1.18-.43-.8-.28-1.61-.57-2.44-.85-2.69-.92-5.57-1.81-8.64-2.62-2.23-.6-4.56-1.16-6.98-1.67,0,0-.01,0-.02,0-2.06-.44-4.19-.84-6.39-1.19-.67-.11-1.22-.2-1.61-.25-.02,0-10.73-1.6-12.58-1.87.02.07.02.14.02.21.07,1.33.07,2.66-.01,3.99,0,.15,0,.3-.02.45-.01.17-.05.34-.15.62-.01.05-.03.09-.05.13l4.61.91,8.07,1.6c1.8.43,4.25,1.05,7.13,1.87,3.99,1.13,7.54,2.28,10.54,3.32,3.58,1.25,6.38,2.35,8.2,3.09.31.13.66.27,1.04.42,2.18.9,5.49,2.32,9.5,4.26.04,0,.06.03.09.04.08.05.16.09.24.12.03.01.05.03.08.04,1.45.7,3,1.47,4.61,2.31,1.31.69,2.86,1.51,4.58,2.48.18.1.35.19.53.29.01.01.03.01.04.02,1.29.68,2.57,1.39,3.81,2.12.04.03.09.05.13.08.01,0,.02,0,.03.02.04.02.09.04.13.07,2.23,1.32,4.64,2.82,7.18,4.49,1.72,1.13,7.58,5.02,14.86,10.84,1.05.85,5.4,4.34,11.19,9.62,4.28,3.9,11.28,10.33,19.29,19.49,7.02,8.03,11.58,14.46,16.06,20.78,2.51,3.54,7.75,11.09,13.82,21.22l.36.6c1.19,2,3.29,5.56,5.87,10.26,1.15,2.08,2.39,4.38,3.69,6.88.22.41.43.83.65,1.25,2.53,4.89,4.73,9.44,6.59,13.43,3.66,7.84,5.98,13.54,6.75,15.45,1.52,3.78,7.18,18.05,12.49,37.91,0,0,2.79,10.41,5.79,26.08.46,2.39.92,4.89,1.38,7.5.43,2.41.85,4.92,1.26,7.5,1.28,8.05,2.46,16.84,3.32,25.91.23,2.47.93,10.18,2.07,21.41,1.06,10.5,1.93,18.31,2.24,21.07,1.32,11.78,2.58,21.99,2.94,24.69,1.97,15,7.89,40.64,19.68,67.85,5.55,12.81,14.42,32.91,32.03,55.34,7.8,9.94,19.89,25.1,40.4,39.63,21.78,15.42,41.45,21.91,47.66,23.82,4.86,1.51,16.58,4.87,32.11,6.48,2.94.3,16.93,1.68,35.48,0,17.47-1.58,30.44-5.09,34.45-6.22,17.22-4.85,29.79-11.15,35.35-14.11,2.2-1.18,4.33-2.37,6.38-3.56.68-.41,1.36-.81,2.03-1.22.67-.4,1.32-.8,1.97-1.21.65-.4,1.29-.8,1.92-1.21,1.88-1.21,3.67-2.41,5.39-3.59.01,0,.02-.02.02-.02.57-.4,1.14-.79,1.69-1.19.42-.29.82-.58,1.23-.88.61-.44,1.2-.88,1.78-1.31.29-.22.58-.43.86-.64.29-.22.58-.43.86-.65.06-.04.13-.09.19-.14.46-.36.91-.71,1.36-1.05.45-.35.89-.7,1.32-1.04.45-.36.9-.72,1.34-1.08.88-.71,1.72-1.4,2.51-2.08.4-.33.79-.66,1.16-.99.13-.11.26-.21.38-.32.49-.42.95-.83,1.4-1.22,1.86-1.65,3.43-3.12,4.67-4.31.22-.22.44-.43.64-.62l1.08-1.08c.5-.5.91-.92,1.21-1.23.02-.02.03-.03.05-.05.13-.14.29-.3.44-.46.05-.05.1-.1.15-.15.24-.25.49-.51.76-.8.21-.23.44-.47.68-.73,1.07-1.16,2.36-2.6,3.83-4.32.41-.49.84-1,1.28-1.53.46-.56.93-1.13,1.41-1.73.24-.3.49-.6.73-.91.25-.31.5-.63.75-.95.5-.65,1.02-1.32,1.54-2.01.26-.34.52-.69.79-1.05.53-.71,1.07-1.45,1.62-2.21.27-.38.54-.77.82-1.16.02-.02.04-.04.05-.06.32-.45.64-.92.96-1.38.61-.89,1.23-1.8,1.85-2.74.54-.82,1.09-1.67,1.64-2.53.24-.37.48-.75.71-1.13.03-.05.06-.1.09-.15.21-.33.42-.67.63-1.01.06-.1.12-.21.19-.32l.03-.03c.17-.28.34-.55.5-.83.1-.17.2-.33.29-.5.02-.05.05-.09.08-.12.02-.04.04-.08.07-.12.02-.03.04-.06.06-.09v-.02c.07-.11.14-.22.2-.34.01-.01.02-.01.02-.02h0s.05-.09.07-.13c.11-.18.21-.35.32-.54.03-.05.06-.1.1-.16.02-.03.03-.06.06-.1.02-.05.05-.1.08-.15h0s.06-.1.09-.14c.06-.1.12-.21.18-.32.03-.07.07-.13.11-.2.14-.24.28-.48.42-.73.02-.04.05-.08.08-.13.06-.12.12-.23.19-.34.01-.02.02-.05.04-.07t.01-.02h0s.01,0,.01,0c.01-.01.01-.03.02-.04.12-.22.25-.44.38-.67.03-.06.06-.13.1-.19.05-.09.1-.18.15-.28.04-.07.08-.14.13-.22,0-.01.01-.03.02-.04.1-.18.2-.36.3-.54h.01s.01-.03.02-.04c0-.02.01-.03.01-.04.12-.21.23-.41.34-.62.05-.09.1-.19.15-.28.03-.06.06-.11.09-.17.04-.07.08-.14.11-.2h0s.05-.1.08-.15.05-.1.08-.15c.03-.05.05-.1.07-.15.01-.01.01-.03.02-.04.15-.27.29-.54.44-.82.23-.43.45-.86.68-1.3.02-.05.05-.09.07-.13.01-.02.02-.04.02-.05.12-.22.23-.44.34-.66.14-.28.29-.57.43-.86.19-.37.38-.75.57-1.14.43-.87.85-1.76,1.28-2.66.26-.56.52-1.12.78-1.68-1.15,2.06-2.39,4.16-3.73,6.29Z" style="fill: rgb(218, 119, 4);"/>
        </g>
        <path class="cls-1" d="M634.55,840.27h-2.99c.71-.3,1.42-.6,2.13-.91.29.31.58.61.86.91Z" style="fill: rgb(218, 119, 4);"/>
        <path class="cls-1" d="M969.23,495.89c-.39-3-.9-5.26-1.29-6.93-1.39-5.94-2.09-8.9-3.1-12.33-.62-2.03-2.07-6.76-4.49-12.85-2.84-7.14-5.64-12.7-8.51-18.16-8.4-15.91-16.17-28.29-18.01-31.18-3.73-5.94-9.91-15.68-18.99-27.94-11.44-15.45-21.08-26.25-23.56-29.02-10.2-11.34-18.47-19.15-26.15-26.37-8.02-7.57-15.02-13.72-20.27-18.2-4.08-3.33-7.83-6.03-11-8.15-5.15-3.42-9.25-5.69-12.72-7.59-2.81-1.52-4.22-2.3-5.56-2.84-2.87-1.19-7.53-3.05-13.39-2.52-2.46.22-5.47.49-8.33,2.71-2.31,1.79-3.43,4.02-3.86,4.98-.19.41-.35.83-.48,1.28-.02.05-.03.09-.04.14l-.14.46-49,173.68-19.51,15.45c-1.42,1.1-2.06,2.86-2.06,5.07,0,.28.01.56.03.85,0,.08.01.16.02.24,0,.03,0,.07.01.1.02.27.05.55.1.84,0,.03,0,.06.01.09.05.32.11.66.18.99.07.38.16.75.26,1.14.01.07.03.13.05.2.08.32.18.64.28.98.04.14.08.28.13.42.02-.02.05-.04.08-.06-.02.03-.04.05-.07.07.02.09.05.19.09.29.08.27.18.55.28.82.2.58.43,1.17.68,1.77.1.25.21.5.32.76.89,2.07,2,4.26,3.28,6.49.43.75.88,1.51,1.35,2.27.11.18.22.36.33.53.3.48.6.95.91,1.42.66,1.02,1.34,2.03,2.05,3.04.22.31.44.62.66.92.68.96,1.38,1.9,2.11,2.83.14.19.28.38.43.57.37.48.75.95,1.13,1.42.6.75,1.21,1.48,1.83,2.2.42.5.85.99,1.28,1.48.04.04.08.08.11.12.49.56.99,1.1,1.48,1.63t.02.02c.4.43.8.85,1.2,1.26.44.46.89.91,1.33,1.35.43.42.85.83,1.28,1.23.64.61,1.27,1.18,1.9,1.73.2.18.41.36.62.54.46.4.92.78,1.37,1.14.8.64,1.59,1.23,2.36,1.78.25.17.49.34.74.51.49.33.98.63,1.46.92.6.36,1.19.68,1.77.97.21.1.42.2.62.29.51.23,1.01.43,1.5.59.21.07.41.14.61.19.14.04.28.08.42.11.14.04.27.06.4.09.29.06.58.1.85.13.13.02.25.03.37.04,1.41.08,2.64-.23,3.66-1.02l20.16-15.96,175.72-9.11v-.11c1.82-.05,4.05-.4,6.24-1.66,1.76-1.01,2.87-2.25,3.14-2.57,1.37-1.57,1.94-3.09,2.47-4.46.93-2.44,1.1-4.46,1.19-5.75.04-.56.17-2.47-.34-6.36ZM762.89,534.23h-.01l-5.05,4c-.08.07-.34.07-.42.07h-.19s-.09-.02-.09-.02c-.17-.02-.3-.04-.4-.06-.05-.01-.1-.02-.17-.03l-.05-.02-.15-.03s-.1-.03-.15-.04l-.04-.02-.08-.02c-.06-.01-.13-.04-.19-.06l-.13-.04c-.31-.1-.66-.24-1.04-.41-.16-.08-.32-.15-.49-.23-.05-.02-.1-.05-.14-.07-.45-.23-.86-.47-1.27-.71-.41-.25-.85-.51-1.25-.78l-.34-.23-.35-.25c-2.88-2.03-6.11-4.93-9.33-8.39l-.06-.06c-.43-.47-.86-.94-1.29-1.43-.09-.1-.17-.19-.25-.28-.38-.43-.76-.86-1.14-1.31l-.02-.02v-.02c-.64-.73-1.2-1.41-1.76-2.1-.35-.44-.71-.88-1.07-1.34-.91-1.17-1.7-2.23-2.42-3.25l-.02-.03-.02-.02c-.21-.28-.41-.57-.61-.85-.66-.94-1.3-1.89-1.97-2.92-.29-.44-.57-.88-.85-1.33l-.02-.03-.02-.03c-.09-.14-.18-.28-.28-.45-.41-.67-.84-1.39-1.27-2.14-1.21-2.1-2.23-4.13-3.03-5.99l-.11-.25c-.06-.15-.12-.29-.18-.43v-.03s-.02-.03-.02-.03c-.24-.56-.43-1.05-.58-1.5l-.04-.1c-.06-.17-.13-.35-.18-.53l-.06-.2-.25-1.1-.13-.12s-.01-.04-.01-.06h0s-.06-.25-.06-.25c-.06-.23-.11-.42-.15-.6-.02-.08-.03-.16-.05-.23l-.02-.12c-.03-.16-.06-.32-.09-.48v-.04l-.07-.39c-.02-.11-.03-.24-.04-.4v-.16s-.04-.41-.04-.41c-.01-.09-.01-.19-.01-.28,0-.92.19-1.36.32-1.46l4.36-3.45,11.57-9.17c.07.31.16.62.25.93.19.65.38,1.25.59,1.81.1.31.21.62.33.94.12.31.24.63.37.95.92,2.31,2.13,4.82,3.6,7.44.14.26.3.53.46.81.09.16.19.34.29.5,2.11,3.62,4.62,7.33,7.47,11.04l.02.03.02.02.34.43.68.87c.41.5.82,1.01,1.21,1.48.2.25.4.5.59.71l.06.08c.1.11.19.23.3.35.22.26.44.53.67.79l.11.14.11.12c.47.54.95,1.08,1.43,1.61l.1.1c.83.92,1.68,1.82,2.51,2.67.28.29.57.58.85.86.21.22.42.42.63.62.1.1.19.19.29.28.34.33.69.66,1.03.98.04.04.09.09.14.13l.06.06c1.23,1.15,2.45,2.2,3.61,3.11.28.23.56.45.81.64.5.39,1.01.76,1.57,1.16.46.32.84.59,1.21.82.44.3.84.55,1.19.76.41.25.82.48,1.23.7l.14.08-11,8.71ZM923.83,510.68l-147.87,10.72h-.02c-.35-.19-.7-.39-1.05-.6-.34-.2-.68-.42-1.03-.66-.35-.22-.71-.47-1.07-.73-.47-.33-.95-.68-1.43-1.05-.25-.19-.5-.39-.75-.59-1.11-.88-2.23-1.85-3.35-2.89-.05-.05-.1-.09-.15-.14-.35-.33-.71-.67-1.06-1.01-.08-.07-.15-.15-.23-.23-.2-.18-.39-.37-.59-.57-.26-.26-.53-.53-.79-.8-.81-.83-1.62-1.69-2.42-2.57-.52-.58-1.05-1.17-1.56-1.76-.02-.02-.03-.04-.05-.06-.25-.28-.49-.57-.73-.86-.12-.13-.22-.26-.33-.39-.18-.21-.36-.43-.54-.65-.39-.47-.78-.95-1.16-1.43-.34-.43-.68-.86-1.02-1.29-2.66-3.46-5.12-7.07-7.17-10.59-.08-.13-.16-.27-.23-.4-.15-.26-.3-.52-.44-.78-1.35-2.4-2.49-4.73-3.36-6.94-.12-.29-.23-.57-.33-.85-.11-.28-.21-.56-.3-.83-.1-.27-.19-.54-.27-.81-.09-.27-.17-.54-.25-.8-.08-.26-.15-.52-.21-.78-.07-.26-.14-.51-.19-.77-.05-.25-.1-.5-.15-.74l1.19-4,43.04-144.71,3.24-10.91c1.55,5.35,2.62,8.77,4.56,13.65,3.04,7.67,5.8,13.47,6.95,15.84.38.79.84,1.72,1.46,2.94h0c1.72,3.41,4.65,8.91,10.39,18.97,1.92,3.35,3.5,6.12,4.86,8.48.58,1.01,1.13,1.95,1.64,2.83,1.71,2.95,3.07,5.23,4.42,7.36,4.92,7.74,10.22,14.91,20.61,28.93,7.48,10.1,11.33,15.29,16.44,21.64,6.81,8.47,12.29,14.71,14.39,17.09,5.64,6.37,10.65,11.65,14.18,15.3.21.21.42.43.62.63,2.25,2.3,3.81,3.85,4.46,4.48,10.93,10.79,19.62,18.08,25.9,23.02,1.65,1.3,6.45,5.06,13.27,9.16.16.1.31.18.47.28l-11.99.87ZM840.5,395.7c.08.1.15.2.23.3.05.07.1.14.15.21-.06-.07-.11-.14-.16-.21-.07-.1-.15-.2-.22-.3ZM961.61,500.58c-.1,1.02-.14,1.54-.32,2.08-.71,2.14-2.47,3.29-2.87,3.53-1.55.95-3,.97-4.68.99h-.36c-.16,0-.32,0-.48-.02-2.03-.07-3.64-.58-5.03-1.03-1.76-.57-3.04-1.2-3.56-1.46-.57-.28-1.13-.57-1.67-.86-7.56-3.96-12.48-7.8-12.48-7.8-8.11-6.34-15.25-12.91-22.08-19.36-6.46-6.09-9.69-9.14-13.27-12.77-2.79-2.83-10.69-10.94-20.28-22.42-7.78-9.31-13.04-16.47-18.99-24.6-4.8-6.55-8.37-11.66-12.91-18.27-.03-.04-.05-.06-.06-.09h0s-.01-.02-.01-.02c-.02-.02-.03-.04-.04-.06-1-1.47-2.06-3.01-3.2-4.67-9.27-13.52-13.91-20.27-17.2-25.88-5.9-10.07-9.34-17.49-15.19-30.1,0,0-2.49-5.38-5.42-13.53-.04-.1-.1-.28-.2-.55-.43-1.27-1.42-4.31-2.24-8.08,0,0-.27-1.24-.5-3.13-.08-.67-.16-1.43-.22-2.24-.03-.37-.05-.75-.07-1.14-.02-.51-.06-1.45.1-2.64h0c.03-.25.06-.49.11-.75.19-1.1.45-1.79.59-2.13.31-.75.6-1.44,1.22-2.05.73-.7,1.53-.94,2.25-1.14,1.73-.49,3.2-.25,4.19-.08,1.51.26,2.6.73,2.97.89,5.38,2.33,9.46,4.85,9.46,4.85,9.1,5.62,8.11,4.95,9.1,5.61,5.46,3.59,9.52,6.66,11.26,7.99,5.15,3.95,8.71,7.13,12.74,10.73,2.34,2.09,6.67,6.02,13.07,12.32,9.95,9.8,17.23,17.77,19.43,20.18,7.55,8.32,17.03,18.73,28.07,33.82,0,0,12.19,16.63,23.97,37.28,5.05,8.87,8.1,14.81,11.22,21.05,4.99,9.94,6.83,14.48,8.24,18.43,1.36,3.81,2.29,7.47,4.15,14.81,0,0,1.01,3.96,1.26,8,.13,1.95.02,3.26-.07,4.31Z" style="fill: rgb(218, 119, 4);"/>
      </g>
    </g>
    <g id="_ÖVRIGT" data-name="ÖVRIGT" transform="matrix(1, 0, 0, 1, 46.281322, -518.720581)">
      <g>
        <path class="cls-4" d="M183.18,680.82c-.2,3.67-.39,7.33-.59,11-.04.04-.11.1-.22.15-.01,0-.04.01-.12.04-.15.04-.27.06-.29.06-.23.04-.45.06-.5.06-.23.02-.41.03-.69.04,0,0-.34.01-.64,0-8.21-.12-21.38-1.91-21.38-1.91-4.37-.6-9.31-1.27-15.83-1.81-3.83-.33-7.31-.5-14.28-.85-9.99-.49-14.99-.74-16.7-.81,0,0-7.55-.27-13.99-1.39-.41-.07-1.98-.38-2.72-.55-.03-.01-.15-.03-.31-.07-.43-.11-.8-.2-1.2-.35-.23-.09-.46-.18-.73-.35-.09-.05-.39-.24-.78-.64-.25-.25-.63-.64-.94-1.24-.48-.92-.51-1.77-.52-2.2-.01-.54.06-1.01.09-1.22.04-.26.09-.48.2-.92.03-.14.14-.59.38-1.46.14-.51.15-.55.22-.8.08-.31.17-.65.34-1.54l91.2,6.76Z" style="fill: rgb(247, 247, 247);"/>
        <path class="cls-3" d="M183.55,673.85c-.12,2.32-.25,4.65-.37,6.97l-91.2-6.76c.04-.18.08-.39.12-.62.05-.29.09-.52.12-.7.02-.1.04-.19.05-.27,0-.02,0-.05,0-.07.01-.02.01-.04.01-.06s.01-.04.01-.05c.01-.06.02-.13.03-.19.03-.15.05-.29.09-.48.03-.16.06-.32.09-.48.21-.98.4-1.66.4-1.66.32-1.16.48-1.74.86-2.2.17-.2.44-.54.91-.77,0,0,.52-.25,1.16-.25,1.37,0,74.31,5.86,87.1,6.88.36.03.63.34.61.71Z" style="fill: rgb(150, 150, 150);"/>
      </g>
    </g>
  </g>
</svg>